<svg width="21" height="21" viewBox="0 0 21 21" fill="none" xmlns="http://www.w3.org/2000/svg">
<g clip-path="url(#clip0_0_1569)">
<path d="M17.4312 4.24315C16.1562 3.66815 14.7896 3.24315 13.3604 3.00148C13.3477 2.99904 13.3345 3.00061 13.3227 3.00599C13.3109 3.01136 13.3011 3.02027 13.2946 3.03148C13.1196 3.33898 12.9246 3.73982 12.7879 4.05648C11.2721 3.83001 9.73116 3.83001 8.2154 4.05648C8.06318 3.70553 7.89152 3.36334 7.70123 3.03148C7.69478 3.02013 7.68503 3.01102 7.67326 3.00537C7.6615 2.99971 7.64829 2.99777 7.6354 2.99982C6.20707 3.24148 4.8404 3.66648 3.56457 4.24232C3.55359 4.24692 3.54429 4.25477 3.5379 4.26482C0.944567 8.07731 0.233734 11.7956 0.582901 15.4673C0.583872 15.4763 0.586663 15.485 0.591105 15.4929C0.595546 15.5008 0.601544 15.5077 0.608734 15.5131C2.12239 16.6152 3.81068 17.4547 5.6029 17.9965C5.61539 18.0003 5.62876 18.0003 5.64124 17.9965C5.65373 17.9926 5.66476 17.985 5.6729 17.9748C6.05856 17.459 6.40032 16.9118 6.69457 16.339C6.69865 16.3311 6.70101 16.3225 6.70147 16.3137C6.70193 16.3049 6.7005 16.2961 6.69726 16.2879C6.69402 16.2796 6.68905 16.2722 6.68269 16.2661C6.67633 16.2599 6.66873 16.2553 6.6604 16.2523C6.12207 16.0496 5.60047 15.8049 5.1004 15.5206C5.09141 15.5155 5.08384 15.5082 5.07836 15.4995C5.07289 15.4907 5.06967 15.4807 5.06901 15.4704C5.06835 15.46 5.07026 15.4497 5.07458 15.4403C5.07889 15.4309 5.08548 15.4227 5.09373 15.4165C5.19873 15.339 5.30373 15.2581 5.40373 15.1773C5.41274 15.17 5.42358 15.1654 5.43505 15.1639C5.44653 15.1625 5.45819 15.1642 5.46873 15.169C8.74123 16.639 12.2854 16.639 15.5196 15.169C15.5301 15.1639 15.5419 15.162 15.5536 15.1633C15.5652 15.1646 15.5762 15.1692 15.5854 15.1765C15.6854 15.2581 15.7896 15.339 15.8954 15.4165C15.9037 15.4226 15.9104 15.4307 15.9149 15.44C15.9193 15.4493 15.9214 15.4596 15.9209 15.4699C15.9204 15.4802 15.9174 15.4903 15.912 15.4991C15.9067 15.508 15.8993 15.5154 15.8904 15.5206C15.3921 15.8073 14.8737 16.0498 14.3296 16.2515C14.3212 16.2545 14.3136 16.2593 14.3072 16.2655C14.3009 16.2717 14.2959 16.2792 14.2927 16.2875C14.2894 16.2958 14.288 16.3047 14.2885 16.3135C14.289 16.3224 14.2913 16.3311 14.2954 16.339C14.5954 16.9115 14.9387 17.4565 15.3162 17.974C15.3241 17.9846 15.335 17.9925 15.3475 17.9967C15.3601 18.0009 15.3736 18.0011 15.3862 17.9973C17.1815 17.457 18.8726 16.6171 20.3879 15.5131C20.3953 15.508 20.4015 15.5013 20.4061 15.4935C20.4107 15.4858 20.4136 15.4771 20.4146 15.4681C20.8312 11.2231 19.7162 7.53481 17.4571 4.26648C17.4515 4.25586 17.4424 4.24758 17.4312 4.24315ZM7.18373 13.2315C6.19873 13.2315 5.38623 12.3406 5.38623 11.2481C5.38623 10.1548 6.1829 9.26481 7.18373 9.26481C8.19207 9.26481 8.99707 10.1623 8.98123 11.2481C8.98123 12.3415 8.18457 13.2315 7.18373 13.2315ZM13.8296 13.2315C12.8437 13.2315 12.0321 12.3406 12.0321 11.2481C12.0321 10.1548 12.8279 9.26481 13.8296 9.26481C14.8379 9.26481 15.6429 10.1623 15.6271 11.2481C15.6271 12.3415 14.8387 13.2315 13.8296 13.2315Z" fill="#2F80ED"/>
</g>
<defs>
<clipPath id="clip0_0_1569">
<rect width="20" height="20" fill="white" transform="translate(0.5 0.5)"/>
</clipPath>
</defs>
</svg>
