<svg width="630" height="630" viewBox="0 0 630 630" fill="none" xmlns="http://www.w3.org/2000/svg">
<g opacity="0.1" clip-path="url(#clip0_0_1559)">
<path d="M299.734 290.244L198.435 248.481C197.405 248.056 196.227 248.548 195.805 249.578L120.174 433.925C119.751 434.956 120.244 436.136 121.274 436.56L222.573 478.323C223.603 478.748 224.78 478.256 225.203 477.226L300.834 292.879C301.256 291.848 300.764 290.668 299.734 290.244Z" fill="white"/>
<path d="M496.186 363.761L537.351 263.423C537.89 262.107 537.262 260.601 535.947 260.058L352.763 184.536C351.448 183.994 349.944 184.621 349.404 185.937L308.24 286.275C307.7 287.591 308.328 289.097 309.643 289.64L492.827 365.162C494.142 365.704 495.646 365.077 496.186 363.761Z" fill="white"/>
<path d="M428.07 386.819L329.139 346.032C328.303 345.688 327.347 346.086 327.003 346.923L286.387 445.925C286.044 446.762 286.443 447.719 287.279 448.064L386.211 488.851C387.047 489.196 388.003 488.797 388.346 487.96L428.963 388.958C429.306 388.122 428.907 387.164 428.07 386.819Z" fill="white"/>
<path d="M342.68 182.129L243.748 141.342C242.912 140.997 241.956 141.396 241.613 142.233L200.996 241.234C200.653 242.071 201.053 243.029 201.889 243.374L300.82 284.161C301.656 284.505 302.612 284.106 302.956 283.27L343.572 184.268C343.916 183.431 343.516 182.474 342.68 182.129Z" fill="white"/>
</g>
<defs>
<clipPath id="clip0_0_1559">
<rect width="481.516" height="481.516" fill="white" transform="translate(0 185.387) rotate(-22.6442)"/>
</clipPath>
</defs>
</svg>
