<svg width="197" height="197" viewBox="0 0 197 197" fill="none" xmlns="http://www.w3.org/2000/svg">
<g clip-path="url(#clip0_5301_717)">
<path d="M94.7822 88.8254L63.289 67.3953C62.9688 67.1774 62.533 67.2607 62.3156 67.5813L23.4429 124.92C23.2255 125.241 23.3089 125.677 23.6292 125.895L55.1224 147.325C55.4426 147.543 55.8784 147.46 56.0958 147.139L94.9685 89.8005C95.1859 89.4799 95.1025 89.0433 94.7822 88.8254Z" fill="#FCD9C5"/>
<path d="M156.4 127.84L177.558 96.6312C177.835 96.2219 177.729 95.6646 177.32 95.3864L120.369 56.6332C119.96 56.355 119.404 56.4613 119.126 56.8706L97.9683 88.0795C97.6908 88.4889 97.7972 89.0462 98.2061 89.3244L155.157 128.078C155.566 128.356 156.122 128.249 156.4 127.84Z" fill="#FCD9C5"/>
<path d="M131.582 130.831L100.825 109.902C100.565 109.725 100.211 109.792 100.035 110.052L79.1583 140.846C78.9819 141.106 79.0496 141.46 79.3095 141.637L110.067 162.566C110.327 162.743 110.681 162.676 110.857 162.416L131.733 131.622C131.91 131.362 131.842 131.008 131.582 130.831Z" fill="#04234D"/>
<path d="M117.121 55.0935L86.3635 34.1642C86.1036 33.9873 85.7498 34.0549 85.5734 34.3152L64.6971 65.1085C64.5207 65.3687 64.5884 65.7231 64.8483 65.9L95.6056 86.8292C95.8655 87.0061 96.2193 86.9385 96.3957 86.6783L117.272 55.885C117.448 55.6247 117.381 55.2704 117.121 55.0935Z" fill="#04234D"/>
</g>
<defs>
<clipPath id="clip0_5301_717">
<rect width="167.403" height="167.403" fill="white" transform="translate(0.277954 31.7813) rotate(-10.8154)"/>
</clipPath>
</defs>
</svg>
