<svg width="30" height="29" viewBox="0 0 30 29" fill="none" xmlns="http://www.w3.org/2000/svg">
<g clip-path="url(#clip0_0_1304)">
<path d="M15.1621 12.7787L10.4999 8.10845C10.4525 8.06096 10.3756 8.06096 10.3282 8.10845L1.84984 16.6014C1.80243 16.6489 1.80244 16.7259 1.84984 16.7734L6.51203 21.4436C6.55944 21.4911 6.6363 21.4911 6.68371 21.4436L15.1621 12.9507C15.2095 12.9032 15.2095 12.8262 15.1621 12.7787Z" fill="#2F80ED"/>
<path d="M24.3773 21.4197L28.992 16.797C29.0525 16.7364 29.0525 16.6381 28.992 16.5775L20.5611 8.13206C20.5006 8.07143 20.4024 8.07143 20.3419 8.13206L15.7272 12.7547C15.6667 12.8153 15.6667 12.9136 15.7272 12.9743L24.1581 21.4197C24.2186 21.4803 24.3168 21.4803 24.3773 21.4197Z" fill="#2F80ED"/>
<path d="M20.0526 21.1221L15.4994 16.561C15.4609 16.5225 15.3985 16.5225 15.36 16.561L10.8068 21.1221C10.7683 21.1606 10.7683 21.2231 10.8068 21.2617L15.36 25.8228C15.3985 25.8613 15.4609 25.8613 15.4994 25.8228L20.0526 21.2617C20.0911 21.2231 20.0911 21.1606 20.0526 21.1221Z" fill="#012555"/>
<path d="M20.0526 7.76467L15.4994 3.20359C15.4609 3.16504 15.3985 3.16504 15.36 3.20359L10.8068 7.76468C10.7683 7.80322 10.7683 7.86572 10.8068 7.90427L15.36 12.4654C15.3985 12.5039 15.4609 12.5039 15.4994 12.4654L20.0526 7.90427C20.0911 7.86572 20.0911 7.80322 20.0526 7.76467Z" fill="#012555"/>
</g>
<defs>
<clipPath id="clip0_0_1304">
<rect width="29" height="29" fill="white" transform="translate(0.929688)"/>
</clipPath>
</defs>
</svg>
