<svg width="18" height="18" viewBox="0 0 18 18" fill="none" xmlns="http://www.w3.org/2000/svg">
<g clip-path="url(#clip0_5301_426)">
<path d="M2.54525 11.1443L5.43688 8.25268L7.84063 10.6573L10.524 7.97389L9.00001 6.44987H13.2499V10.6998L11.7259 9.17576L7.84063 13.061L5.43688 10.6573L3.33318 12.7601C4.28806 14.1973 5.75361 15.2178 7.43284 15.6147C9.11207 16.0116 10.8794 15.7552 12.3767 14.8976C13.8739 14.04 14.9892 12.6452 15.4964 10.9959C16.0036 9.34665 15.8648 7.56624 15.1082 6.01548C14.3516 4.46471 13.0337 3.25957 11.4216 2.64429C9.80958 2.029 8.02388 2.04958 6.42642 2.70185C4.82896 3.35413 3.53922 4.58931 2.81854 6.1571C2.09787 7.72489 2.00017 9.50718 2.54525 11.1443ZM1.23797 12.4686L1.22947 12.4601L1.23287 12.4567C0.748324 11.3687 0.498664 10.1908 0.50019 8.99982C0.50019 4.30537 4.30556 0.5 9.00001 0.5C13.6945 0.5 17.4998 4.30537 17.4998 8.99982C17.4998 13.6943 13.6945 17.4996 9.00001 17.4996C5.54058 17.4996 2.56565 15.4342 1.23797 12.4686Z" fill="white"/>
</g>
<defs>
<clipPath id="clip0_5301_426">
<rect width="18" height="18" fill="white"/>
</clipPath>
</defs>
</svg>
