<svg width="18" height="19" viewBox="0 0 18 19" fill="none" xmlns="http://www.w3.org/2000/svg">
<g clip-path="url(#clip0_5301_684)">
<path d="M1.5 3.49475C1.50137 3.29778 1.58018 3.10926 1.71938 2.96991C1.85859 2.83056 2.04704 2.75157 2.244 2.75H15.756C16.167 2.75 16.5 3.08375 16.5 3.49475V15.5052C16.4986 15.7022 16.4198 15.8907 16.2806 16.0301C16.1414 16.1694 15.953 16.2484 15.756 16.25H2.244C2.04661 16.2498 1.85737 16.1712 1.71787 16.0316C1.57836 15.892 1.5 15.7026 1.5 15.5052V3.49475ZM7.9665 6.81125C7.92136 6.78113 7.8689 6.76383 7.8147 6.76117C7.76051 6.75851 7.7066 6.7706 7.65873 6.79615C7.61086 6.8217 7.57082 6.85975 7.54287 6.90626C7.51492 6.95277 7.5001 7.00599 7.5 7.06025V11.9398C7.5001 11.994 7.51492 12.0472 7.54287 12.0937C7.57082 12.1402 7.61086 12.1783 7.65873 12.2039C7.7066 12.2294 7.76051 12.2415 7.8147 12.2388C7.8689 12.2362 7.92136 12.2189 7.9665 12.1888L11.6258 9.74975C11.6669 9.72236 11.7006 9.68524 11.724 9.64166C11.7473 9.59809 11.7595 9.54943 11.7595 9.5C11.7595 9.45057 11.7473 9.40191 11.724 9.35834C11.7006 9.31476 11.6669 9.27764 11.6258 9.25025L7.96575 6.81125H7.9665Z" fill="#F88442"/>
</g>
<defs>
<clipPath id="clip0_5301_684">
<rect width="18" height="18" fill="white" transform="translate(0 0.5)"/>
</clipPath>
</defs>
</svg>
