<svg width="19" height="19" viewBox="0 0 19 19" fill="none" xmlns="http://www.w3.org/2000/svg">
<g clip-path="url(#clip0_5301_694)">
<path d="M4.29126 11.75L0.950012 14.375V2.75C0.950012 2.55109 1.02903 2.36032 1.16968 2.21967C1.31033 2.07902 1.5011 2 1.70001 2H12.95C13.1489 2 13.3397 2.07902 13.4803 2.21967C13.621 2.36032 13.7 2.55109 13.7 2.75V11.75H4.29126ZM3.77226 10.25H12.2V3.5H2.45001V11.2887L3.77226 10.25ZM6.20001 13.25H13.8778L15.2 14.2887V6.5H15.95C16.1489 6.5 16.3397 6.57902 16.4803 6.71967C16.621 6.86032 16.7 7.05109 16.7 7.25V17.375L13.3588 14.75H6.95001C6.7511 14.75 6.56033 14.671 6.41968 14.5303C6.27903 14.3897 6.20001 14.1989 6.20001 14V13.25Z" fill="#656565"/>
</g>
<defs>
<clipPath id="clip0_5301_694">
<rect width="18" height="18" fill="white" transform="translate(0.200012 0.5)"/>
</clipPath>
</defs>
</svg>
