<svg width="16" height="16" viewBox="0 0 16 16" fill="none" xmlns="http://www.w3.org/2000/svg">
<g clip-path="url(#clip0_0_1477)">
<path d="M8.66927 14V15.3333H7.33594V14H2.0026C1.82579 14 1.65622 13.9298 1.5312 13.8047C1.40618 13.6797 1.33594 13.5101 1.33594 13.3333V4H14.6693V13.3333C14.6693 13.5101 14.599 13.6797 14.474 13.8047C14.349 13.9298 14.1794 14 14.0026 14H8.66927ZM5.33594 6.66667C4.94037 6.66667 4.55369 6.78396 4.2248 7.00373C3.8959 7.22349 3.63955 7.53585 3.48818 7.9013C3.3368 8.26675 3.2972 8.66888 3.37437 9.05685C3.45154 9.44481 3.64202 9.80118 3.92172 10.0809C4.20143 10.3606 4.55779 10.5511 4.94576 10.6282C5.33372 10.7054 5.73585 10.6658 6.1013 10.5144C6.46676 10.3631 6.77911 10.1067 6.99888 9.77781C7.21864 9.44891 7.33594 9.06223 7.33594 8.66667H5.33594V6.66667ZM8.66927 6.66667V8H12.6693V6.66667H8.66927ZM8.66927 9.33333V10.6667H12.6693V9.33333H8.66927ZM1.33594 2H14.6693V3.33333H1.33594V2Z" fill="#2F80ED"/>
</g>
<defs>
<clipPath id="clip0_0_1477">
<rect width="16" height="16" fill="white"/>
</clipPath>
</defs>
</svg>
