<svg width="18" height="18" viewBox="0 0 18 18" fill="none" xmlns="http://www.w3.org/2000/svg">
<g clip-path="url(#clip0_5301_379)">
<path d="M2.54519 11.1443L5.43682 8.25268L7.84057 10.6573L10.524 7.97389L8.99995 6.44987H13.2499V10.6998L11.7258 9.17576L7.84057 13.061L5.43682 10.6573L3.33312 12.7601C4.288 14.1973 5.75355 15.2178 7.43278 15.6147C9.11201 16.0116 10.8793 15.7552 12.3766 14.8976C13.8739 14.04 14.9891 12.6452 15.4963 10.9959C16.0035 9.34665 15.8647 7.56624 15.1081 6.01548C14.3515 4.46471 13.0336 3.25957 11.4216 2.64429C9.80951 2.029 8.02382 2.04958 6.42636 2.70185C4.8289 3.35413 3.53916 4.58931 2.81848 6.1571C2.09781 7.72489 2.00011 9.50718 2.54519 11.1443ZM1.23791 12.4686L1.22941 12.4601L1.23281 12.4567C0.748263 11.3687 0.498603 10.1908 0.500129 8.99982C0.500129 4.30537 4.3055 0.5 8.99995 0.5C13.6944 0.5 17.4998 4.30537 17.4998 8.99982C17.4998 13.6943 13.6944 17.4996 8.99995 17.4996C5.54052 17.4996 2.56558 15.4342 1.23791 12.4686Z" fill="white"/>
</g>
<defs>
<clipPath id="clip0_5301_379">
<rect width="18" height="18" fill="white"/>
</clipPath>
</defs>
</svg>
