<svg width="18" height="19" viewBox="0 0 18 19" fill="none" xmlns="http://www.w3.org/2000/svg">
<g clip-path="url(#clip0_5301_709)">
<path d="M9.75 13.2035V14.75H13.5V16.25H4.5V14.75H8.25V13.2035C6.80002 13.0207 5.46661 12.3149 4.5 11.2188C3.53339 10.1227 3.00002 8.71146 3 7.25V2.75H15V7.25C15 8.71146 14.4666 10.1227 13.5 11.2188C12.5334 12.3149 11.2 13.0207 9.75 13.2035ZM4.5 4.25V7.25C4.5 8.44347 4.97411 9.58807 5.81802 10.432C6.66193 11.2759 7.80653 11.75 9 11.75C10.1935 11.75 11.3381 11.2759 12.182 10.432C13.0259 9.58807 13.5 8.44347 13.5 7.25V4.25H4.5ZM0.75 4.25H2.25V7.25H0.75V4.25ZM15.75 4.25H17.25V7.25H15.75V4.25Z" fill="#656565"/>
</g>
<defs>
<clipPath id="clip0_5301_709">
<rect width="18" height="18" fill="white" transform="translate(0 0.5)"/>
</clipPath>
</defs>
</svg>
