<svg width="16" height="16" viewBox="0 0 16 16" fill="none" xmlns="http://www.w3.org/2000/svg">
<g clip-path="url(#clip0_0_1470)">
<path d="M4.66927 3.33268V1.33268C4.66927 1.15587 4.73951 0.986302 4.86453 0.861278C4.98956 0.736253 5.15913 0.666016 5.33594 0.666016H10.6693C10.8461 0.666016 11.0157 0.736253 11.1407 0.861278C11.2657 0.986302 11.3359 1.15587 11.3359 1.33268V3.33268H14.0026C14.1794 3.33268 14.349 3.40292 14.474 3.52794C14.599 3.65297 14.6693 3.82254 14.6693 3.99935V13.3327C14.6693 13.5095 14.599 13.6791 14.474 13.8041C14.349 13.9291 14.1794 13.9993 14.0026 13.9993H2.0026C1.82579 13.9993 1.65622 13.9291 1.5312 13.8041C1.40618 13.6791 1.33594 13.5095 1.33594 13.3327V3.99935C1.33594 3.82254 1.40618 3.65297 1.5312 3.52794C1.65622 3.40292 1.82579 3.33268 2.0026 3.33268H4.66927ZM2.66927 9.99935V12.666H13.3359V9.99935H2.66927ZM7.33594 7.33268V8.66602H8.66927V7.33268H7.33594ZM6.0026 1.99935V3.33268H10.0026V1.99935H6.0026Z" fill="#2F80ED"/>
</g>
<defs>
<clipPath id="clip0_0_1470">
<rect width="16" height="16" fill="white"/>
</clipPath>
</defs>
</svg>
