<svg width="19" height="19" viewBox="0 0 19 19" fill="none" xmlns="http://www.w3.org/2000/svg">
<g clip-path="url(#clip0_5301_689)">
<path d="M10.35 16.25V17.75H8.85001V16.25H2.85001C2.65109 16.25 2.46033 16.171 2.31968 16.0303C2.17902 15.8897 2.10001 15.6989 2.10001 15.5V5H17.1V15.5C17.1 15.6989 17.021 15.8897 16.8803 16.0303C16.7397 16.171 16.5489 16.25 16.35 16.25H10.35ZM3.60001 14.75H15.6V6.5H3.60001V14.75ZM10.35 8H14.1V9.5H10.35V8ZM10.35 11H14.1V12.5H10.35V11ZM7.35001 8V10.25H9.60001C9.60001 10.695 9.46805 11.13 9.22081 11.5C8.97358 11.87 8.62218 12.1584 8.21104 12.3287C7.79991 12.499 7.34751 12.5436 6.91105 12.4568C6.4746 12.3699 6.07368 12.1557 5.75902 11.841C5.44435 11.5263 5.23006 11.1254 5.14324 10.689C5.05642 10.2525 5.10098 9.8001 5.27128 9.38896C5.44157 8.97783 5.72996 8.62643 6.09997 8.37919C6.46998 8.13196 6.905 8 7.35001 8ZM2.10001 2.75H17.1V4.25H2.10001V2.75Z" fill="#656565"/>
</g>
<defs>
<clipPath id="clip0_5301_689">
<rect width="18" height="18" fill="white" transform="translate(0.600006 0.5)"/>
</clipPath>
</defs>
</svg>
