<svg width="69" height="69" viewBox="0 0 69 69" fill="none" xmlns="http://www.w3.org/2000/svg">
<g clip-path="url(#clip0_5301_729)">
<path d="M34.3464 62.9588C18.5409 62.9588 5.72876 50.1466 5.72876 34.3411C5.72876 18.5356 18.5409 5.72345 34.3464 5.72345C50.1519 5.72345 62.9641 18.5356 62.9641 34.3411C62.9641 50.1466 50.1519 62.9588 34.3464 62.9588ZM30.4029 24.0817C30.2307 23.9668 30.0305 23.9007 29.8237 23.8906C29.6169 23.8804 29.4112 23.9265 29.2286 24.024C29.0459 24.1215 28.8931 24.2667 28.7865 24.4442C28.6798 24.6217 28.6233 24.8247 28.6229 25.0318V43.6504C28.6233 43.8575 28.6798 44.0605 28.7865 44.238C28.8931 44.4155 29.0459 44.5607 29.2286 44.6582C29.4112 44.7557 29.6169 44.8018 29.8237 44.7916C30.0305 44.7815 30.2307 44.7155 30.4029 44.6005L44.3655 35.2941C44.5225 35.1896 44.6512 35.0479 44.7403 34.8817C44.8294 34.7154 44.876 34.5297 44.876 34.3411C44.876 34.1525 44.8294 33.9668 44.7403 33.8006C44.6512 33.6343 44.5225 33.4926 44.3655 33.3881L30.4 24.0817H30.4029Z" fill="#5F2200"/>
</g>
<defs>
<clipPath id="clip0_5301_729">
<rect width="68.6824" height="68.6824" fill="white"/>
</clipPath>
</defs>
</svg>
