<svg width="19" height="19" viewBox="0 0 19 19" fill="none" xmlns="http://www.w3.org/2000/svg">
<g clip-path="url(#clip0_5301_699)">
<path d="M15.05 17H4.55005C3.95331 17 3.38102 16.7629 2.95906 16.341C2.5371 15.919 2.30005 15.3467 2.30005 14.75V2.75C2.30005 2.55109 2.37907 2.36032 2.51972 2.21967C2.66037 2.07902 2.85114 2 3.05005 2H13.55C13.749 2 13.9397 2.07902 14.0804 2.21967C14.221 2.36032 14.3 2.55109 14.3 2.75V11.75H17.3V14.75C17.3 15.3467 17.063 15.919 16.641 16.341C16.2191 16.7629 15.6468 17 15.05 17ZM14.3 13.25V14.75C14.3 14.9489 14.3791 15.1397 14.5197 15.2803C14.6604 15.421 14.8511 15.5 15.05 15.5C15.249 15.5 15.4397 15.421 15.5804 15.2803C15.721 15.1397 15.8 14.9489 15.8 14.75V13.25H14.3ZM12.8 15.5V3.5H3.80005V14.75C3.80005 14.9489 3.87907 15.1397 4.01972 15.2803C4.16037 15.421 4.35114 15.5 4.55005 15.5H12.8ZM5.30005 5.75H11.3V7.25H5.30005V5.75ZM5.30005 8.75H11.3V10.25H5.30005V8.75ZM5.30005 11.75H9.05005V13.25H5.30005V11.75Z" fill="#656565"/>
</g>
<defs>
<clipPath id="clip0_5301_699">
<rect width="18" height="18" fill="white" transform="translate(0.800049 0.5)"/>
</clipPath>
</defs>
</svg>
