<svg width="16" height="16" viewBox="0 0 16 16" fill="none" xmlns="http://www.w3.org/2000/svg">
<g clip-path="url(#clip0_0_1484)">
<path d="M12.6693 14.6663H3.33594C2.8055 14.6663 2.2968 14.4556 1.92172 14.0806C1.54665 13.7055 1.33594 13.1968 1.33594 12.6663V1.99967C1.33594 1.82286 1.40618 1.65329 1.5312 1.52827C1.65622 1.40325 1.82579 1.33301 2.0026 1.33301H11.3359C11.5127 1.33301 11.6823 1.40325 11.8073 1.52827C11.9324 1.65329 12.0026 1.82286 12.0026 1.99967V9.99967H14.6693V12.6663C14.6693 13.1968 14.4586 13.7055 14.0835 14.0806C13.7084 14.4556 13.1997 14.6663 12.6693 14.6663ZM12.0026 11.333V12.6663C12.0026 12.8432 12.0728 13.0127 12.1979 13.1377C12.3229 13.2628 12.4925 13.333 12.6693 13.333C12.8461 13.333 13.0157 13.2628 13.1407 13.1377C13.2657 13.0127 13.3359 12.8432 13.3359 12.6663V11.333H12.0026ZM4.0026 4.66634V5.99967H9.33594V4.66634H4.0026ZM4.0026 7.33301V8.66634H9.33594V7.33301H4.0026ZM4.0026 9.99967V11.333H7.33594V9.99967H4.0026Z" fill="#2F80ED"/>
</g>
<defs>
<clipPath id="clip0_0_1484">
<rect width="16" height="16" fill="white"/>
</clipPath>
</defs>
</svg>
