<svg width="18" height="18" viewBox="0 0 18 18" fill="none" xmlns="http://www.w3.org/2000/svg">
<g clip-path="url(#clip0_5301_139)">
<path d="M2.54531 11.1443L5.43695 8.25268L7.84069 10.6573L10.5241 7.97389L9.00007 6.44987H13.25V10.6998L11.726 9.17576L7.84069 13.061L5.43695 10.6573L3.33324 12.7601C4.28812 14.1973 5.75367 15.2178 7.4329 15.6147C9.11213 16.0116 10.8794 15.7552 12.3767 14.8976C13.874 14.04 14.9892 12.6452 15.4964 10.9959C16.0036 9.34665 15.8649 7.56624 15.1083 6.01548C14.3516 4.46471 13.0338 3.25957 11.4217 2.64429C9.80964 2.029 8.02394 2.04958 6.42648 2.70185C4.82902 3.35413 3.53928 4.58931 2.8186 6.1571C2.09793 7.72489 2.00023 9.50718 2.54531 11.1443ZM1.23804 12.4686L1.22954 12.4601L1.23294 12.4567C0.748385 11.3687 0.498725 10.1908 0.500251 8.99982C0.500251 4.30537 4.30562 0.5 9.00007 0.5C13.6945 0.5 17.4999 4.30537 17.4999 8.99982C17.4999 13.6943 13.6945 17.4996 9.00007 17.4996C5.54064 17.4996 2.56571 15.4342 1.23804 12.4686Z" fill="white"/>
</g>
<defs>
<clipPath id="clip0_5301_139">
<rect width="18" height="18" fill="white"/>
</clipPath>
</defs>
</svg>
