<svg width="126" height="126" viewBox="0 0 126 126" fill="none" xmlns="http://www.w3.org/2000/svg">
<g clip-path="url(#clip0_0_1429)">
<rect x="39.1016" y="49.9658" width="49.9655" height="57.569" fill="white"/>
<path d="M63.0234 36.7499C74.1625 36.7499 84.8454 41.1749 92.7219 49.0514C100.598 56.9279 105.023 67.6108 105.023 78.7499C105.023 89.889 100.598 100.572 92.7219 108.448C84.8454 116.325 74.1625 120.75 63.0234 120.75C51.8843 120.75 41.2015 116.325 33.325 108.448C25.4484 100.572 21.0234 89.889 21.0234 78.7499C21.0234 67.6108 25.4484 56.9279 33.325 49.0514C41.2015 41.1749 51.8843 36.7499 63.0234 36.7499ZM63.0234 55.1249L56.0777 69.1949L40.5534 71.4524L51.7884 82.3986L49.1372 97.8651L63.0234 90.5624L76.9097 97.8599L74.2584 82.3986L85.4934 71.4471L69.9692 69.1896L63.0234 55.1249ZM68.2734 10.4946L94.5234 10.4999V26.2499L87.3677 32.2244C81.4296 29.1089 74.9465 27.1677 68.2734 26.5071V10.4999V10.4946ZM57.7734 10.4946V26.5071C51.1025 27.1668 44.6213 29.1062 38.6844 32.2191L31.5234 26.2499V10.4999L57.7734 10.4946Z" fill="#FF7169"/>
</g>
<defs>
<clipPath id="clip0_0_1429">
<rect width="126" height="126" fill="white"/>
</clipPath>
</defs>
</svg>
