<svg width="19" height="19" viewBox="0 0 19 19" fill="none" xmlns="http://www.w3.org/2000/svg">
<g clip-path="url(#clip0_5301_704)">
<path d="M11.65 2.75C12.064 2.75 12.4 3.086 12.4 3.5V5H16.15C16.564 5 16.9 5.336 16.9 5.75V15.5C16.9 15.914 16.564 16.25 16.15 16.25H2.65002C2.23602 16.25 1.90002 15.914 1.90002 15.5V5.75C1.90002 5.336 2.23602 5 2.65002 5H6.40002V3.5C6.40002 3.086 6.73602 2.75 7.15002 2.75H11.65ZM12.4 6.5H6.40002V14.75H12.4V6.5ZM3.40002 6.5V14.75H4.90002V6.5H3.40002ZM10.9 4.25H7.90002V5H10.9V4.25ZM13.9 6.5V14.75H15.4V6.5H13.9Z" fill="#656565"/>
</g>
<defs>
<clipPath id="clip0_5301_704">
<rect width="18" height="18" fill="white" transform="translate(0.400024 0.5)"/>
</clipPath>
</defs>
</svg>
