<svg width="121" height="121" viewBox="0 0 121 121" fill="none" xmlns="http://www.w3.org/2000/svg">
<rect x="24.6094" y="6.15234" width="71.7796" height="73.8305" fill="white"/>
<rect x="7.52344" y="38.9663" width="71.7796" height="73.8305" fill="white"/>
<rect x="37.5938" y="38.9663" width="71.7796" height="73.8305" fill="white"/>
<path d="M46.4052 55.272C49.4515 58.3252 53.5321 60.1258 57.84 60.3171V63.9609H57.8602C57.9019 65.7751 59.3851 67.2222 61.1993 67.2222C63.0134 67.2222 64.4954 65.775 64.5371 63.9609H64.5574V60.1572C67.5228 59.9468 70.3003 58.6278 72.3394 56.4638C74.3775 54.2998 75.5275 51.4493 75.5615 48.4758C75.7618 45.371 74.6522 42.3244 72.5028 40.075C70.3668 38.2811 67.7167 37.2098 64.9325 37.0174L60.2556 36.3512H60.2567C58.904 36.2105 57.6245 35.6658 56.5858 34.788C55.8183 34.0453 55.3951 33.0156 55.4176 31.9476C55.4176 29.2298 57.4163 26.9454 61.5339 26.9454C64.4993 26.717 67.4309 27.6972 69.6625 29.6632L69.6704 29.6542V29.6553C70.3164 30.3249 71.2076 30.703 72.1383 30.703C73.069 30.703 73.9592 30.3249 74.6063 29.6553C75.2522 28.9857 75.5988 28.082 75.5662 27.1525C75.5324 26.2218 75.1239 25.3451 74.4307 24.7228C71.7422 22.1772 68.2514 20.6468 64.5568 20.3947V16.6201C64.415 14.8589 62.9655 13.4894 61.1999 13.4453C59.4455 13.4498 57.9836 14.7901 57.8272 16.5377L57.8407 20.6396V20.6408C55.061 21.0313 52.521 22.4256 50.7003 24.5614C48.8783 26.6974 47.9026 29.4265 47.9566 32.2331C47.7912 35.1096 48.8187 37.9265 50.7971 40.0206C52.942 41.9056 55.6327 43.058 58.4765 43.3101L63.2603 43.9763C64.55 44.0405 65.7834 44.5278 66.7682 45.3628C67.6314 46.2529 68.0759 47.4683 67.9915 48.7061C67.9915 51.874 65.5449 53.5991 60.9769 53.5991C57.5063 53.8231 54.0909 52.6426 51.4969 50.3255C50.8464 49.6469 49.9517 49.2564 49.0121 49.2395C48.0724 49.2238 47.1653 49.5816 46.4912 50.2366C45.8171 50.8916 45.4322 51.7885 45.4221 52.7282C45.4109 53.6678 45.7755 54.5726 46.435 55.2434L46.4052 55.272Z" fill="#4499FE"/>
<path d="M117.542 38.4123L100.832 29.129V13.4448C100.832 9.8785 99.4153 6.45967 96.8945 3.93769C94.3725 1.41685 90.9537 0 87.3873 0H33.6115C30.0452 0 26.6263 1.41685 24.1043 3.93769C21.5835 6.45964 20.1667 9.8785 20.1667 13.4448V29.129L3.45714 38.4123C2.40943 38.9941 1.53612 39.846 0.928445 40.8791C0.320737 41.9133 0 43.0894 0 44.289V100.833C0 106.182 2.1247 111.312 5.9071 115.093C9.68835 118.875 14.8179 121 20.1667 121H100.833C106.182 121 111.312 118.875 115.093 115.093C118.875 111.312 121 106.182 121 100.833V44.289C121 43.0894 120.679 41.9134 120.072 40.8791C119.464 39.846 118.591 38.9941 117.543 38.4123H117.542ZM103.084 59.9687L62.7506 80.1354C61.3337 80.8433 59.6648 80.8433 58.2468 80.1354L17.9135 59.9687C16.7172 59.3712 15.8079 58.3235 15.3836 57.0552C14.9605 55.787 15.0584 54.4027 15.6549 53.2066C16.2524 52.0103 17.3001 51.0999 18.5684 50.6768C19.8367 50.2536 21.2209 50.3515 22.417 50.948L26.8871 53.1841V13.4442C26.8894 11.6616 27.5984 9.95338 28.8588 8.69296C30.1192 7.43254 31.8276 6.72357 33.6101 6.72129H87.3888H87.3877C89.1702 6.72354 90.8785 7.43254 92.1389 8.69296C93.3993 9.95338 94.1083 11.6618 94.1106 13.4442V53.1841L98.5807 50.9491V50.948C99.7769 50.3515 101.161 50.2536 102.429 50.6768C103.698 51.0999 104.745 52.0103 105.343 53.2066C105.939 54.4028 106.037 55.787 105.614 57.0552C105.19 58.3235 104.281 59.3713 103.084 59.9687H103.084Z" fill="#4499FE"/>
</svg>
