<svg width="26" height="27" viewBox="0 0 26 27" fill="none" xmlns="http://www.w3.org/2000/svg">
<path d="M23.1844 14.5514L18.7071 15.7798C18.3288 14.9877 17.5268 14.4354 16.5924 14.4354H10.8498C9.73653 14.4354 8.62086 14.6987 7.62186 15.1975L5.65882 16.1794C5.61584 16.0866 5.59597 15.6852 5.14171 15.4597C4.90303 15.3407 4.62546 15.331 4.37966 15.4288L0.587292 16.9581C0.111003 17.1503 -0.118407 17.692 0.0729866 18.1673C0.265232 18.6436 0.810647 18.8712 1.28216 18.6816L4.10164 17.5439L5.69403 23.4806L3.28795 24.749C2.83434 24.9883 2.66022 25.5501 2.89958 26.0046C3.13891 26.4573 3.69856 26.6317 4.1552 26.393L7.21705 24.7781C7.60067 24.576 7.79291 24.1349 7.68059 23.7156L7.56503 23.2845L9.82894 22.1816L13.5956 23.2385C14.7649 23.565 15.996 23.4279 17.062 22.8512L24.7284 18.6991C25.7626 18.2056 26.2497 17.0208 25.8616 15.9423C25.4712 14.8569 24.2975 14.2476 23.1844 14.5513L23.1844 14.5514ZM23.8856 17.0436L16.1772 21.2176C15.5378 21.5641 14.7954 21.646 14.0977 21.4498L9.9915 20.2977C9.77204 20.237 9.53681 20.2569 9.33374 20.3564L7.07476 21.4567L6.15003 18.0108L8.45264 16.8591C9.1944 16.4893 10.0236 16.2932 10.85 16.2932H16.5926C16.8631 16.2932 17.0834 16.5138 17.0834 16.7851C17.0834 17.038 16.8855 17.2534 16.6334 17.275L13.2189 17.559C12.7082 17.6009 12.3281 18.0498 12.3706 18.5615C12.414 19.087 12.8864 19.46 13.3731 19.4097L16.7888 19.1257C17.675 19.0516 18.417 18.4751 18.7505 17.6953L23.6763 16.3434C23.8586 16.2989 24.05 16.3941 24.1146 16.5719C24.177 16.7479 24.0979 16.9421 23.8856 17.0436L23.8856 17.0436Z" fill="black"/>
<path d="M23.2275 9.7904C23.7409 9.7904 24.1565 9.37481 24.1565 8.86136V5.67748L24.4931 5.54658C24.8503 5.40769 25.0854 5.06359 25.0854 4.68085C25.0854 4.29809 24.8503 3.95397 24.4931 3.81534L16.1322 0.563831C15.9164 0.478723 15.6749 0.478723 15.4589 0.563831L7.098 3.81534C6.74073 3.95423 6.50549 4.29811 6.50549 4.68085C6.50549 5.06361 6.7405 5.40773 7.09778 5.54636L10.2216 6.76117V10.3211C10.2216 10.6313 10.3767 10.9216 10.6353 11.094C10.726 11.1547 12.8934 12.5773 15.7953 12.5773C18.6975 12.5773 20.8647 11.1547 20.9556 11.094C21.2142 10.9216 21.3693 10.6313 21.3693 10.3211V6.76117L22.2983 6.3998V8.86139C22.2983 9.37484 22.714 9.7904 23.2275 9.7904ZM19.5116 9.78133C18.8491 10.1241 17.4576 10.7194 15.7955 10.7194C14.1327 10.7194 12.741 10.1233 12.0796 9.78244V7.48375L15.459 8.79793C15.6734 8.88282 15.9175 8.88282 16.1322 8.79793L19.5116 7.48375V9.78133ZM15.7955 6.93526L9.99761 4.6808L15.7955 7.14197L21.5939 4.68102L15.7955 6.93526Z" fill="black"/>
</svg>
