<svg width="147" height="110" viewBox="0 0 147 110" fill="none" xmlns="http://www.w3.org/2000/svg">
<path d="M72.725 60.0085C72.8793 59.8542 73.0346 59.6988 73.1889 59.6988C69.4768 53.667 63.2906 49.9549 55.7119 50.1101C54.7841 50.1101 53.8563 50.7283 53.5467 51.6572L45.968 74.2383L43.3389 60.783H43.8028C44.7306 60.783 45.5041 60.0095 45.5041 59.0817V54.4416C45.5041 53.5138 44.7306 52.7402 43.8028 52.7402H37.771C36.8432 52.7402 36.0697 53.5138 36.0697 54.4416V59.0817C36.0697 60.0095 36.8432 60.783 37.771 60.783H38.2349L35.6058 74.2383L28.0271 51.6572C27.7175 50.7294 26.944 50.1101 25.8619 50.1101C15.4996 49.8005 7.76655 57.0696 5.44607 67.2775L0.188969 89.0851C-0.894185 94.0348 2.81807 98.6738 7.76765 98.6738H58.0326V98.5195L63.1364 76.5568C64.6824 69.9069 67.9306 64.1847 72.7251 60.0086L72.725 60.0085Z" fill="#F88341"/>
<path d="M64.8397 24.1269C64.8397 37.4526 54.0375 48.2549 40.7128 48.2549C27.3871 48.2549 16.5859 37.4526 16.5859 24.1269C16.5859 10.8023 27.3871 0 40.7128 0C54.0375 0 64.8397 10.8023 64.8397 24.1269Z" fill="#F88341"/>
<path d="M146.813 100.221L141.864 78.4131C139.544 68.2051 131.811 60.9361 121.448 61.2457C120.52 61.2457 119.592 61.8638 119.282 62.7927L111.704 85.3738L109.075 71.9186H109.539C110.466 71.9186 111.24 71.145 111.24 70.2172V65.5771C111.24 64.6493 110.466 63.8758 109.539 63.8758H103.507C102.579 63.8758 101.805 64.6493 101.805 65.5771V70.2172C101.805 71.145 102.579 71.9186 103.507 71.9186H103.971L101.342 85.3738L93.4541 62.6386C93.1445 61.7108 92.371 61.0916 91.2889 61.0916C80.9266 60.7819 73.1935 68.051 70.8731 78.259L65.9233 100.066C64.8402 105.016 68.5525 109.655 73.502 109.655H139.078C144.183 109.655 147.895 105.016 146.813 100.221L146.813 100.221Z" fill="#F88341"/>
<path d="M130.418 35.2626C130.418 48.5884 119.617 59.3895 106.291 59.3895C92.9663 59.3895 82.1641 48.5884 82.1641 35.2626C82.1641 21.938 92.9663 11.1357 106.291 11.1357C119.617 11.1357 130.418 21.938 130.418 35.2626Z" fill="#F88341"/>
</svg>
