<svg width="27" height="40" viewBox="0 0 27 40" fill="none" xmlns="http://www.w3.org/2000/svg">
<path d="M18.5154 10.9413L15.6844 10.5251C15.4346 10.5251 15.2682 10.3587 15.1848 10.1089L13.9359 7.61101C13.6861 7.11143 12.9367 7.11143 12.687 7.61101L11.438 10.1089C11.3547 10.3587 11.1049 10.442 10.9385 10.5251L8.10745 10.9413C7.52452 11.0247 7.27474 11.774 7.69124 12.1069L9.68953 14.1052C9.85596 14.2716 9.93931 14.5214 9.85596 14.7712L9.43974 17.5191C9.35638 18.102 9.93931 18.5182 10.4389 18.2685L12.9367 16.9362C13.1032 16.8528 13.353 16.8528 13.6027 16.9362L16.1006 18.2685C16.6002 18.5182 17.2662 18.102 17.0998 17.5191L16.6002 14.7715C16.6002 14.5217 16.6002 14.2719 16.7666 14.1055L18.7649 12.1072C19.2648 11.6907 19.0983 11.0247 18.5154 10.9413H18.5154Z" fill="#753B11"/>
<path d="M25.4289 14.1057C25.1791 13.6062 25.1791 13.0232 25.4289 12.5237L26.3447 10.9416C26.7609 10.1922 26.5111 9.27643 25.7618 8.85993L24.1797 7.94414C23.6801 7.69436 23.4303 7.19479 23.4303 6.61186L23.4306 4.69692C23.4306 3.86421 22.7646 3.11485 21.8485 3.11485H20.0167C19.4337 3.11485 18.9342 2.7817 18.6844 2.36549L17.7686 0.783415C17.3524 0.0340558 16.4363 -0.21573 15.6869 0.200485L14.1049 1.11627C13.6053 1.36606 13.0224 1.36606 12.5228 1.11627L10.9407 0.200485C10.1914 -0.21573 9.27558 0.0340558 8.85907 0.783415L7.94329 2.36549C7.6935 2.86506 7.19393 3.11485 6.611 3.11485H4.77914C3.94642 3.11485 3.19706 3.78085 3.19706 4.69692V6.52878C3.19706 7.11171 2.86392 7.61129 2.4477 7.86107L0.783415 8.86022C0.0340558 9.27643 -0.21573 10.1925 0.200485 10.9419L1.11656 12.5237C1.36634 13.0232 1.36634 13.6062 1.11656 14.1057L0.20077 15.6878C-0.215445 16.4372 0.0343411 17.3529 0.7837 17.7695L2.36577 18.6852C2.86535 18.935 3.11513 19.4346 3.11513 20.0175V21.8494C3.11513 22.6821 3.78113 23.4315 4.69721 23.4315H6.52907C7.02864 23.4315 7.44486 23.6812 7.69464 24.0144L2.61556 37.9189L6.279 36.4202L8.11086 39.9172L13.2727 26.012L18.3518 40L20.1837 36.503L23.8471 38.0017L18.768 24.0972C19.0178 23.764 19.5174 23.5142 19.9336 23.5142H21.7655C22.5982 23.5142 23.3475 22.8482 23.3475 21.9322V20.1003C23.3475 19.5174 23.6807 19.0178 24.0969 18.768L25.679 17.8522C26.4283 17.436 26.6781 16.5199 26.2619 15.7706L25.4289 14.1057ZM13.2729 21.9319C8.52694 21.9319 4.69664 18.1017 4.69664 13.3557C4.69664 8.60958 8.5268 4.77942 13.2729 4.77942C18.019 4.77942 21.8491 8.60958 21.8491 13.3557C21.8491 18.1019 18.019 21.9319 13.2729 21.9319Z" fill="#753B11"/>
</svg>
