<svg width="33" height="32" viewBox="0 0 33 32" fill="none" xmlns="http://www.w3.org/2000/svg">
<path fill-rule="evenodd" clip-rule="evenodd" d="M0.5 16C0.5 7.16344 7.66344 0 16.5 0C25.3366 0 32.5 7.16344 32.5 16C32.5 24.8366 25.3366 32 16.5 32C7.66344 32 0.5 24.8366 0.5 16ZM11.8065 13.2519H8.18056V24.1464H11.8065V13.2519ZM12.0445 9.8818C12.0209 8.8136 11.257 8 10.0166 8C8.77622 8 7.96528 8.8136 7.96528 9.8818C7.96528 10.9279 8.75225 11.7649 9.96956 11.7649H9.99274C11.257 11.7649 12.0445 10.9279 12.0445 9.8818ZM24.882 17.8998C24.882 14.5535 23.0932 12.9961 20.7072 12.9961C18.7821 12.9961 17.9201 14.0535 17.4389 14.7953V13.2522H13.8125C13.8603 14.2745 13.8125 24.1467 13.8125 24.1467H17.4389V18.0623C17.4389 17.7367 17.4624 17.4119 17.5583 17.1788C17.8204 16.5283 18.417 15.8548 19.4188 15.8548C20.7314 15.8548 21.2561 16.8538 21.2561 18.3178V24.1464H24.8819L24.882 17.8998Z" fill="#012555"/>
</svg>
