<svg width="32" height="33" viewBox="0 0 32 33" fill="none" xmlns="http://www.w3.org/2000/svg">
<path d="M0 16.5C0 7.66344 7.16344 0.5 16 0.5C24.8366 0.5 32 7.66344 32 16.5C32 25.3366 24.8366 32.5 16 32.5C7.16344 32.5 0 25.3366 0 16.5Z" fill="#0077B5"/>
<path fill-rule="evenodd" clip-rule="evenodd" d="M11.5401 10.3818C11.5401 11.4279 10.7527 12.2649 9.4884 12.2649H9.46522C8.24791 12.2649 7.46094 11.4279 7.46094 10.3818C7.46094 9.3136 8.27188 8.5 9.51229 8.5C10.7527 8.5 11.5166 9.3136 11.5401 10.3818ZM11.3056 13.7516V24.6461H7.67969V13.7516H11.3056ZM24.3741 24.6468L24.3742 18.4002C24.3742 15.0539 22.5854 13.4965 20.1994 13.4965C18.2742 13.4965 17.4123 14.5539 16.9311 15.2957V13.7526H13.3047C13.3525 14.7749 13.3047 24.647 13.3047 24.647H16.9311V18.5627C16.9311 18.2371 16.9546 17.9123 17.0505 17.6791C17.3125 17.0287 17.9092 16.3552 18.911 16.3552C20.2236 16.3552 20.7483 17.3542 20.7483 18.8182V24.6468H24.3741Z" fill="white"/>
</svg>
