<svg width="17" height="16" viewBox="0 0 17 16" fill="none" xmlns="http://www.w3.org/2000/svg">
<path d="M4.44436 5.3333e-06C4.31176 5.3333e-06 4.18463 0.052713 4.09082 0.146458C3.99707 0.240207 3.94442 0.36739 3.94436 0.500003V4.62505C3.94441 4.75765 3.99707 4.88483 4.09082 4.97859C4.18462 5.07234 4.31175 5.12504 4.44436 5.12504H9.1358L11.4395 6.08597C11.5938 6.15024 11.7699 6.13321 11.909 6.04066C12.0481 5.94806 12.1317 5.79211 12.1319 5.62504V0.499997C12.1319 0.367394 12.0793 0.240212 11.9855 0.146453C11.8917 0.0527037 11.7645 0 11.6319 0L4.44436 5.3333e-06ZM6.70901 1.99999C6.725 1.99921 6.74094 1.99921 6.75688 1.99999H9.31846C9.453 1.99703 9.58305 2.04838 9.67925 2.14245C9.77544 2.23656 9.82966 2.36542 9.82966 2.49999C9.82966 2.63456 9.77544 2.76343 9.67925 2.85754C9.58305 2.9516 9.453 3.00295 9.31846 2.99999H6.75688C6.58073 3.00447 6.41521 2.91603 6.321 2.76707C6.22683 2.61816 6.21788 2.43067 6.29741 2.27343C6.37694 2.11619 6.53329 2.01234 6.70902 1.99999H6.70901ZM2.9405 6.22557C1.7465 6.22557 0.766647 7.20635 0.766647 8.40036C0.766647 9.59437 1.74643 10.5742 2.9405 10.5742C4.13451 10.5742 5.11436 9.59443 5.11436 8.40036C5.11436 7.20635 4.13457 6.22557 2.9405 6.22557ZM13.1376 6.22557C11.9436 6.22557 10.9638 7.20635 10.9638 8.40036C10.9638 9.59437 11.9436 10.5742 13.1376 10.5742C14.3317 10.5742 15.3086 9.59443 15.3086 8.40036C15.3086 7.20635 14.3317 6.22557 13.1376 6.22557ZM2.9405 11.2422C1.34171 11.2422 0.0391846 12.5477 0.0391846 14.1465V15.501C0.039445 15.6331 0.0919963 15.7597 0.185277 15.8532C0.27861 15.9467 0.405116 15.9995 0.537248 16H5.33895C5.47177 16.0005 5.59926 15.9482 5.69343 15.8546C5.78761 15.761 5.84067 15.6338 5.84093 15.501V14.1465C5.84093 12.5477 4.53932 11.2422 2.94054 11.2422H2.9405ZM13.1376 11.2422C11.5389 11.2422 10.2373 12.5477 10.2373 14.1465V15.501C10.2375 15.6331 10.2901 15.7597 10.3834 15.8532C10.4767 15.9467 10.6032 15.9995 10.7353 16H15.537C15.6698 16.0005 15.7973 15.9482 15.8915 15.8546C15.9856 15.7609 16.0387 15.6338 16.039 15.501V14.1465C16.039 12.5477 14.7364 11.2422 13.1376 11.2422Z" fill="#2F80ED"/>
</svg>
