<svg width="25" height="27" viewBox="0 0 25 27" fill="none" xmlns="http://www.w3.org/2000/svg">
<path d="M23.5451 22.4231C23.3553 22.2079 23.1353 22.0215 22.8919 21.8696C22.648 21.7094 22.3861 21.5784 22.1115 21.4791C21.5438 21.2663 20.9359 21.1823 20.3317 21.233C20.0957 21.2468 19.8592 21.2468 19.6232 21.233C18.9564 21.1959 18.2984 21.0637 17.6691 20.8398C17.6545 20.8356 17.6392 20.8356 17.6249 20.8398C17.0145 20.6297 16.4355 20.3384 15.9031 19.9736C15.6886 19.7843 15.5122 19.556 15.3829 19.3009C15.2465 19.0785 15.1526 18.8326 15.1062 18.5759C15.8542 18.0196 16.497 17.3343 17.0049 16.5524C17.4709 15.8226 17.8219 15.0254 18.0455 14.1889C18.0732 14.3411 18.1036 14.4906 18.1312 14.6402V14.6399C18.4066 15.9747 18.7993 17.2827 19.3049 18.5482C19.3313 18.6243 19.3748 18.6935 19.4321 18.7501C20.2155 19.7935 22.5902 20.6876 23.6585 20.7457H23.6588C23.6919 20.7486 23.7253 20.7486 23.7584 20.7457H23.8053C23.8886 20.7363 23.9689 20.7088 24.0406 20.6656C24.2912 20.4793 24.3542 20.1306 24.1847 19.8683C22.1343 16.8747 21.2105 13.2515 21.5772 9.64099C21.7032 8.20817 21.556 6.76441 21.1428 5.38695C20.8311 4.13798 20.1975 2.99277 19.3049 2.06557C19.1425 1.89628 18.9626 1.74504 18.7679 1.61431C17.856 0.96933 16.7849 0.586516 15.6706 0.507182C14.5274 0.449107 13.4564 0.73973 12.7036 1.50632C12.6085 1.60023 12.5213 1.70205 12.4434 1.81078L12.4157 1.84958L12.1389 1.89653C11.9192 1.93014 11.702 1.97809 11.4885 2.04061C9.80853 2.50273 8.46321 3.63481 7.45022 5.05212V5.05188C6.34385 6.64039 5.67559 8.49265 5.51274 10.4215C5.49816 10.5697 5.54413 10.7178 5.64001 10.8317C5.73565 10.9459 5.87355 11.0165 6.02207 11.0277C6.11648 11.0361 6.21113 11.0217 6.29886 10.9861C6.50373 10.8905 6.70242 10.7823 6.89394 10.6624C6.91642 12.3275 7.32789 13.9645 8.0952 15.4424C8.56375 16.3787 9.18057 17.2331 9.92197 17.9722C9.91653 18.0172 9.91653 18.0629 9.92197 18.1079C9.9321 18.8141 9.62789 19.4885 9.09162 19.9485C8.54423 20.3182 7.95039 20.614 7.32565 20.8285C6.692 21.0536 6.02924 21.1861 5.35781 21.2217C5.1218 21.2355 4.8853 21.2355 4.64931 21.2217C4.04434 21.172 3.43564 21.256 2.86677 21.468C2.59691 21.5679 2.33965 21.6989 2.10019 21.8583C1.85603 22.0137 1.63263 22.1995 1.43591 22.4118C1.03285 22.8903 0.784732 23.4802 0.72444 24.1029C0.667601 24.6952 0.653761 25.2911 0.682923 25.8854C0.691325 26.1911 0.946116 26.4321 1.25181 26.4237C1.5575 26.4153 1.79845 26.1607 1.79005 25.855C1.7688 25.324 1.78363 24.7924 1.83454 24.2635C1.86567 23.8718 2.01197 23.4982 2.25514 23.1895C2.39848 23.042 2.55293 22.906 2.71727 22.7827C2.88853 22.6656 3.07462 22.5724 3.27084 22.5059C3.70751 22.3611 4.16888 22.3065 4.6271 22.3453H5.42436C6.19341 22.2937 6.95258 22.1429 7.68284 21.897C7.94307 21.8056 8.20033 21.7006 8.45239 21.5842C8.72918 21.9356 9.00596 22.3065 9.28274 22.6663C10.0355 23.6212 10.7443 24.5318 11.8457 26.1095C12.0244 26.3604 12.3699 26.4241 12.6261 26.2534C12.6704 26.2118 12.7285 26.1676 12.7423 26.1095C13.1187 25.6306 13.3789 25.2985 13.6114 24.9801C14.5332 23.7208 15.2721 22.7298 16.3266 21.49H16.3269C16.6246 21.634 16.9303 21.7608 17.2429 21.8693C17.2429 21.8693 17.2872 21.8693 17.301 21.897C18.0332 22.1436 18.7942 22.2944 19.5652 22.3453H20.3595C20.8196 22.3062 21.283 22.3608 21.7214 22.5059C21.9116 22.5721 22.0916 22.6653 22.2554 22.7827C22.4269 22.8981 22.5833 23.0348 22.7205 23.1895C22.9691 23.4989 23.1152 23.8782 23.1384 24.2743C23.2061 24.8069 23.2209 25.3444 23.1826 25.8797C23.1695 26.0378 23.2227 26.1945 23.3294 26.3119C23.4359 26.4295 23.5867 26.4975 23.7453 26.4999C23.904 26.5022 24.0565 26.4384 24.1667 26.3242C24.2767 26.2098 24.3342 26.0549 24.3258 25.8965C24.3444 25.3068 24.3204 24.7167 24.2539 24.1305C24.2117 23.4988 23.9626 22.8988 23.5452 22.4229L23.5451 22.4231ZM8.06741 9.79046C8.46034 9.42224 8.80089 9.04318 9.11076 8.6999C9.34924 8.41373 9.61145 8.14807 9.89417 7.90562C10.038 7.80331 10.124 7.77563 10.2402 7.91946C10.6509 8.46536 11.1298 8.95668 11.6656 9.38074C12.1882 9.80357 12.7608 10.1604 13.3705 10.4436L13.412 10.4713C13.9369 10.6989 14.4793 10.884 15.0339 11.0249C15.8635 11.2038 16.6363 11.5841 17.2842 12.132C17.1948 13.486 16.7747 14.7975 16.0609 15.9516C15.3075 17.0787 14.2525 17.9717 13.0163 18.5284C12.939 18.5632 12.8545 18.5785 12.77 18.5726C12.6852 18.5659 12.6022 18.5464 12.5236 18.5145L12.5097 18.4841C11.0312 17.6978 9.84149 16.4607 9.11369 14.9525C8.29322 13.3619 7.93096 11.5747 8.06736 9.79046L8.06741 9.79046ZM12.7008 24.3185L12.3133 24.836C11.4442 23.607 10.8352 22.8128 10.171 21.9713C9.94681 21.6945 9.7197 21.4012 9.4486 21.0496C9.54547 20.9858 9.64235 20.925 9.72538 20.8585V20.8588C9.74194 20.8407 9.76171 20.8257 9.78345 20.8143C10.1831 20.4757 10.5033 20.0534 10.7218 19.5772C10.8236 19.3394 10.9005 19.0918 10.9514 18.8382C11.2857 19.0789 11.6394 19.292 12.0088 19.4748C12.2327 19.6068 12.4878 19.6765 12.7478 19.6767C13.0149 19.7002 13.2828 19.6404 13.5146 19.5052C13.7249 19.4083 13.9243 19.306 14.1208 19.2007H14.1206C14.1959 19.4244 14.2884 19.6419 14.3973 19.8512C14.6005 20.2209 14.8765 20.5458 15.2084 20.8061C15.2121 20.8236 15.222 20.8392 15.2361 20.8503L15.3522 20.9249C14.3392 22.1319 13.6253 23.0895 12.7035 24.3185L12.7008 24.3185Z" fill="#2B2F34"/>
</svg>
