<svg width="33" height="32" viewBox="0 0 33 32" fill="none" xmlns="http://www.w3.org/2000/svg">
<path fill-rule="evenodd" clip-rule="evenodd" d="M0.5 16C0.5 7.16344 7.66344 0 16.5 0C25.3366 0 32.5 7.16344 32.5 16C32.5 24.8366 25.3366 32 16.5 32C7.66344 32 0.5 24.8366 0.5 16ZM24.6767 12.0488C24.4804 11.2948 23.9021 10.7011 23.1677 10.4996C21.8369 10.1333 16.5 10.1333 16.5 10.1333C16.5 10.1333 11.1631 10.1333 9.83217 10.4996C9.09782 10.7011 8.51949 11.2948 8.32322 12.0488C7.96667 13.4154 7.96667 16.2667 7.96667 16.2667C7.96667 16.2667 7.96667 19.1179 8.32322 20.4845C8.51949 21.2385 9.09782 21.8323 9.83217 22.0339C11.1631 22.4 16.5 22.4 16.5 22.4C16.5 22.4 21.8369 22.4 23.1677 22.0339C23.9021 21.8323 24.4804 21.2385 24.6767 20.4845C25.0333 19.1179 25.0333 16.2667 25.0333 16.2667C25.0333 16.2667 25.0333 13.4154 24.6767 12.0488Z" fill="#012555"/>
<path fill-rule="evenodd" clip-rule="evenodd" d="M14.8994 19.2V13.8667L19.1661 16.5335L14.8994 19.2Z" fill="#012555"/>
</svg>
